<?xml version="1.0" encoding="UTF-8"?>
<!DOCTYPE svg PUBLIC "-//W3C//DTD SVG 1.1//EN" "http://www.w3.org/Graphics/SVG/1.1/DTD/svg11.dtd">
<!-- Creator: CorelDRAW 2021 (64 Bit) -->
<svg xmlns="http://www.w3.org/2000/svg" xml:space="preserve" width="105.529mm" height="44.7357mm" version="1.1" style="shape-rendering:geometricPrecision; text-rendering:geometricPrecision; image-rendering:optimizeQuality; fill-rule:evenodd; clip-rule:evenodd"
viewBox="0 0 10552.86 4473.57"
 xmlns:xlink="http://www.w3.org/1999/xlink"
 xmlns:xodm="http://www.corel.com/coreldraw/odm/2003">
 <defs>
  <style type="text/css">
   <![CDATA[
    .fil4 {fill:none}
    .fil1 {fill:#F05669}
    .fil3 {fill:#A8CF45}
    .fil0 {fill:#5CC6D0}
    .fil2 {fill:#5CC6D0}
    .fil5 {fill:#201E1E;fill-rule:nonzero}
   ]]>
  </style>
     <clipPath id="id0">
      <path d="M4340.18 880.24l-524.86 0 0 1206.8 0 1180.64 386.44 0 138.42 0 0 -1744.18c64,12.81 134.42,57.61 204.8,134.4 102.43,112.05 243.24,345.68 243.24,556.9 0,99.18 -32.03,192.01 -112,265.62 73.59,15.98 144.01,25.58 211.22,25.58 70.38,0 134.41,-9.6 192.02,-44.79 169.6,-102.4 243.23,-278.43 243.23,-544.04l67.21 -147.22c48,-102.44 185.59,-256.06 281.6,-316.84l0 1814.57 524.87 0 0 -455.82c193.28,268.07 504.53,455.82 924.52,455.82 150.41,0 294.42,-25.59 435.26,-80.02 112.74,-43.69 217.36,-103.82 309.89,-179.78l-217.51 -669.18c-71.26,241.98 -248.95,407.33 -527.64,407.33 -368.04,0 -560.06,-296.58 -560.06,-670.45 0,-377.11 188.8,-670.47 560.06,-670.47 90.96,0 171.14,17.65 240.39,49.79l-186.79 -574.66 -26.81 0 0.27 0.26c-8.98,-0.17 -17.99,-0.26 -27.06,-0.26 -150.44,0 -297.63,25.62 -435.25,76.8 -197.06,73.16 -365.56,194.96 -489.27,363.1l0 -439.9 -524.87 0c-223.96,0 -425.62,144 -604.86,428.86 -153.62,-188.85 -406.44,-428.86 -726.46,-428.86z"/>
     </clipPath>
 </defs>
 <g id="Camada_x0020_1">
  <metadata id="CorelCorpID_0Corel-Layer"/>
  <g id="_2468215352160">
   <g>
    <path class="fil0" d="M1393.21 481.32c379.56,0 723.55,151.82 974.82,397.98l-6.44 8.07c-62.83,196.14 -125.69,392.34 -188.54,588.49l-14.97 17.91c-133.23,-236.68 -386.85,-396.54 -677.79,-396.54 -429.33,0 -777.31,347.98 -777.31,777.3 0,429.33 347.98,777.31 777.31,777.31 141.42,0 273.99,-37.78 388.22,-103.77l-227.51 697.68c-80.41,14.44 -163.21,22.01 -247.79,22.01 -769.48,0 -1393.21,-623.74 -1393.21,-1393.23 0,-769.49 623.73,-1393.21 1393.21,-1393.21zm2169.09 825.41l61.52 189.85 0 1771.1 -132.51 0c19.2,-44.78 28.79,-99.21 28.79,-153.61 0,-121.6 -38.4,-259.22 -76.8,-339.25 -150.44,-73.59 -291.25,-108.77 -422.44,-108.77l-6.43 0c-134.41,0 -275.21,35.18 -422.43,108.77 -41.58,83.24 -79.99,211.23 -79.99,332.86 0,57.61 9.6,112 31.98,160l-711.33 0 778.54 -2387.44 812.88 0 0.01 0 7.74 23.89 7.69 23.72 7.63 23.56 7.58 23.41 7.54 23.24 7.48 23.09 7.43 22.93 7.38 22.76 7.32 22.6 7.28 22.45 7.22 22.29 7.17 22.13 7.12 21.97 7.06 21.8 7.02 21.65 6.96 21.49 6.92 21.33 6.86 21.17 6.81 21.01zm-544.66 876.05c-86.4,0 -176.02,12.83 -262.43,41.62l262.43 -793.7 259.23 793.7c-86.41,-28.79 -169.61,-41.62 -256.01,-41.62l-3.22 0z"/>
    <path class="fil1" d="M4340.18 880.24l-524.86 0 0 1206.8 0 1180.64 386.44 0 138.42 0 0 -1744.18c64,12.81 134.42,57.61 204.8,134.4 102.43,112.05 243.24,345.68 243.24,556.9 0,99.18 -32.03,192.01 -112,265.62 73.59,15.98 144.01,25.58 211.22,25.58 70.38,0 134.41,-9.6 192.02,-44.79 169.6,-102.4 243.23,-278.43 243.23,-544.04l67.21 -147.22c48,-102.44 185.59,-256.06 281.6,-316.84l0 1814.57 524.87 0 0 -455.82c193.28,268.07 504.53,455.82 924.52,455.82 150.41,0 294.42,-25.59 435.26,-80.02 112.74,-43.69 217.36,-103.82 309.89,-179.78l-217.51 -669.18c-71.26,241.98 -248.95,407.33 -527.64,407.33 -368.04,0 -560.06,-296.58 -560.06,-670.45 0,-377.11 188.8,-670.47 560.06,-670.47 90.96,0 171.14,17.65 240.39,49.79l-186.79 -574.66 -26.81 0 0.27 0.26c-8.98,-0.17 -17.99,-0.26 -27.06,-0.26 -150.44,0 -297.63,25.62 -435.25,76.8 -197.06,73.16 -365.56,194.96 -489.27,363.1l0 -439.9 -524.87 0c-223.96,0 -425.62,144 -604.86,428.86 -153.62,-188.85 -406.44,-428.86 -726.46,-428.86z"/>
    <g style="clip-path:url(#id0)">
     <g>
      <polygon id="_1" class="fil2" points="-652.16,188.65 3815.32,188.65 3815.32,3267.69 -652.16,3267.69 "/>
      <polygon class="fil3" points="3815.32,188.65 8018.56,188.65 8018.56,3267.69 3815.32,3267.69 "/>
      <polygon class="fil1" points="7152.15,188.65 12221.82,188.65 12221.82,3267.69 8152.93,3267.69 "/>
     </g>
    </g>
    <path class="fil4" d="M4340.18 880.24l-524.86 0 0 1206.8 0 1180.64 386.44 0 138.42 0 0 -1744.18c64,12.81 134.42,57.61 204.8,134.4 102.43,112.05 243.24,345.68 243.24,556.9 0,99.18 -32.03,192.01 -112,265.62 73.59,15.98 144.01,25.58 211.22,25.58 70.38,0 134.41,-9.6 192.02,-44.79 169.6,-102.4 243.23,-278.43 243.23,-544.04l67.21 -147.22c48,-102.44 185.59,-256.06 281.6,-316.84l0 1814.57 524.87 0 0 -455.82c193.28,268.07 504.53,455.82 924.52,455.82 150.41,0 294.42,-25.59 435.26,-80.02 112.74,-43.69 217.36,-103.82 309.89,-179.78l-217.51 -669.18c-71.26,241.98 -248.95,407.33 -527.64,407.33 -368.04,0 -560.06,-296.58 -560.06,-670.45 0,-377.11 188.8,-670.47 560.06,-670.47 90.96,0 171.14,17.65 240.39,49.79l-186.79 -574.66 -26.81 0 0.27 0.26c-8.98,-0.17 -17.99,-0.26 -27.06,-0.26 -150.44,0 -297.63,25.62 -435.25,76.8 -197.06,73.16 -365.56,194.96 -489.27,363.1l0 -439.9 -524.87 0c-223.96,0 -425.62,144 -604.86,428.86 -153.62,-188.85 -406.44,-428.86 -726.46,-428.86z"/>
    <path class="fil1" d="M7376.94 880.24l641.62 1974.06 0.01 -0.01 134.36 413.39 579.27 0 0 -3.21c0,-451.24 99.22,-748.87 220.82,-1072.08 124.81,313.61 227.25,614.46 227.25,1059.3l-3.22 15.99 579.27 0 241.19 -745.43 0 745.43 531.23 0 0.03 -2387.44 -531.26 0 -66.3 0 -418.13 1324.95c-137.62,-380.85 -300.84,-716.89 -300.84,-1228.95 0,-25.59 3.21,-54.38 3.21,-83.2l-6.39 0 0 -19.19c0,0 -256.04,6.39 -256.04,6.39 0,0 -256.02,-6.39 -256.02,-6.39l0 19.19 -3.21 0c0,35.21 3.21,67.22 3.21,102.4 0,505.68 -166.42,841.71 -300.83,1216.15l-429.74 -1331.35 -589.49 0zm2853.05 -880.24c178.31,0 322.87,144.56 322.87,322.89 0,178.31 -144.56,322.87 -322.87,322.87 -178.32,0 -322.88,-144.56 -322.88,-322.87 0,-178.33 144.56,-322.89 322.88,-322.89z"/>
   </g>
   <path class="fil5" d="M1276.67 4462.95l0 -556.86c0,-20.45 -5.31,-38.14 -15.93,-53.09 -10.62,-14.94 -26.54,-23.2 -47.78,-24.77 -12.58,-1.58 -25.96,-1.38 -40.11,0.59 -14.16,1.96 -29.1,8.06 -44.83,18.28 -15.73,9.44 -25.76,19.67 -30.09,30.68 -4.32,11.01 -6.49,16.52 -6.49,16.52 0,0 -7.08,-3.74 -21.23,-11.21 -14.16,-7.47 -32.45,-14.75 -54.86,-21.83 -22.42,-7.08 -47.98,-12.39 -76.69,-15.93 -28.71,-3.53 -57.22,-1.76 -85.53,5.31 -31.46,8.66 -59.39,22.62 -83.77,41.89 -24.38,19.27 -45.03,42.07 -61.94,68.42 -16.91,26.35 -29.88,55.65 -38.93,87.9 -9.04,32.24 -13.57,64.88 -13.57,97.92 0,43.26 6.89,84.35 20.65,123.29 13.76,38.93 33.43,73.34 58.99,103.23 25.56,29.88 56.63,53.68 93.2,71.37 36.58,17.7 77.28,26.55 122.11,26.55 33.82,0 64.89,-7.08 93.2,-21.24 28.32,-14.16 51.52,-36.18 69.61,-66.07 0,0 -0.2,3.35 -0.59,10.03 -0.39,6.69 -0.59,14.36 -0.59,23.01 0,8.65 0.2,17.3 0.59,25.95 0.39,8.66 0.59,15.34 0.59,20.06l163.99 0zm-174.61 -322.08c0,21.24 -2.16,42.28 -6.49,63.12 -4.32,20.84 -11.8,39.72 -22.41,56.63 -10.62,16.91 -24.39,30.67 -41.3,41.29 -16.91,10.62 -37.55,15.93 -61.93,15.93 -23.6,0 -43.66,-5.12 -60.17,-15.34 -16.52,-10.23 -30.09,-23.6 -40.71,-40.11 -10.61,-16.52 -18.48,-35 -23.59,-55.45 -5.11,-20.45 -7.67,-40.9 -7.67,-61.35 0,-19.66 2.56,-39.72 7.67,-60.17 5.11,-20.45 13.17,-38.93 24.18,-55.45 11.02,-16.52 24.98,-29.89 41.89,-40.11 16.91,-10.23 37.16,-15.34 60.75,-15.34 23.6,0 43.66,4.92 60.17,14.75 16.52,9.83 29.89,22.61 40.12,38.34 10.22,15.73 17.69,33.43 22.41,53.09 4.72,19.66 7.08,39.72 7.08,60.17zm1514.56 237.14l0 -819.95 -181.68 0 0 318.54c-40.12,-40.11 -89.27,-60.17 -147.48,-60.17 -44.83,0 -85.33,8.85 -121.51,26.55 -36.18,17.69 -66.86,41.68 -92.03,71.96 -25.17,30.28 -44.63,64.89 -58.4,103.82 -13.76,38.94 -20.64,79.64 -20.64,122.11 0,40.9 6.68,81.01 20.05,120.34 13.37,39.32 32.45,74.52 57.22,105.59 24.78,31.07 54.86,56.04 90.26,74.91 35.39,18.88 75.11,28.32 119.15,28.32 33.82,0 65.87,-7.08 96.16,-21.24 30.28,-14.16 55.64,-35 76.09,-62.53 1.57,21.24 7.67,40.71 18.29,58.4 10.62,17.7 28.9,26.55 54.86,26.55 27.53,0 49.35,-8.65 65.48,-25.96 16.12,-17.3 24.18,-39.72 24.18,-67.24zm-176.97 -224.16c0,20.45 -2.75,40.11 -8.25,58.99 -5.51,18.87 -13.57,35.59 -24.19,50.14 -10.62,14.55 -24.38,26.35 -41.29,35.39 -16.91,9.05 -36.38,13.57 -58.4,13.57 -22.81,0 -42.47,-5.11 -58.99,-15.34 -16.52,-10.22 -30.08,-23.2 -40.7,-38.93 -10.62,-15.73 -18.49,-33.63 -23.6,-53.68 -5.11,-20.06 -7.67,-40.31 -7.67,-60.76 0,-19.66 2.76,-39.33 8.26,-58.99 5.51,-19.66 13.77,-37.36 24.78,-53.09 11.01,-15.73 24.77,-28.51 41.29,-38.34 16.52,-9.83 36.18,-14.75 58.99,-14.75 24.38,0 45.03,5.31 61.94,15.93 16.91,10.62 30.28,24.18 40.11,40.7 9.83,16.52 16.91,35.2 21.24,56.04 4.32,20.84 6.48,41.88 6.48,63.12zm1505.12 -33.04c0,-40.9 -8.26,-79.63 -24.78,-116.2 -16.51,-36.58 -38.53,-68.63 -66.06,-96.16 -27.53,-27.53 -59.78,-49.35 -96.74,-65.47 -36.97,-16.13 -75.51,-24.19 -115.62,-24.19 -45.62,0 -87.9,8.45 -126.83,25.36 -38.93,16.92 -72.75,39.92 -101.46,69.02 -28.71,29.1 -51.12,63.32 -67.25,102.64 -16.12,39.33 -24.18,81.8 -24.18,127.42 0,49.55 8.65,94.38 25.95,134.49 17.3,40.12 41.29,74.53 71.97,103.23 30.67,28.71 66.66,50.93 107.95,66.66 41.29,15.73 85.93,23.6 133.9,23.6 29.89,0 58.4,-2.56 85.54,-7.67 27.13,-5.11 54.46,-13.17 81.99,-24.19l-24.77 -139.21c-21.24,4.72 -42.67,9.24 -64.3,13.57 -21.63,4.32 -43.06,6.49 -64.3,6.49 -40.11,0 -74.72,-11.41 -103.82,-34.22 -29.1,-22.81 -47.98,-53.09 -56.63,-90.84l344.5 0c27.52,0 48.56,-4.92 63.11,-14.75 14.55,-9.83 21.83,-29.69 21.83,-59.58zm-188.76 -28.31l-240.68 0c2.36,-17.3 6.49,-34.02 12.39,-50.14 5.9,-16.13 13.76,-30.48 23.59,-43.06 9.83,-12.59 22.03,-22.62 36.58,-30.09 14.55,-7.47 31.65,-11.21 51.32,-11.21 18.09,0 34.21,3.94 48.37,11.8 14.16,7.87 26.15,18.09 35.98,30.68 9.83,12.58 17.7,26.93 23.6,43.06 5.9,16.12 9.24,32.44 10.03,48.96l-1.18 0zm1408.37 180.5c0,-33.82 -7.86,-62.33 -23.59,-85.53 -15.73,-23.2 -35.59,-42.67 -59.58,-58.4 -23.99,-15.73 -49.95,-28.9 -77.87,-39.52 -27.92,-10.62 -53.88,-20.25 -77.86,-28.91 -23.99,-8.65 -43.85,-17.3 -59.58,-25.95 -15.73,-8.65 -23.6,-19.27 -23.6,-31.85 0,-8.66 1.97,-16.13 5.9,-22.42 3.93,-6.29 9.05,-11.4 15.34,-15.34 6.29,-4.72 13.56,-8.06 21.82,-10.03 8.26,-1.96 16.32,-2.95 24.19,-2.95 17.3,0 33.82,2.36 49.55,7.08 15.73,4.72 30.67,10.03 44.83,15.93 14.16,5.9 27.53,11.21 40.11,15.93 12.59,4.72 24.78,7.08 36.58,7.08 18.09,0 33.82,-6.49 47.19,-19.47 13.37,-12.98 20.05,-28.9 20.05,-47.78 0,-21.24 -9.04,-39.33 -27.13,-54.27 -18.09,-14.94 -39.52,-26.74 -64.3,-35.39 -24.77,-8.66 -50.14,-14.95 -76.09,-18.88 -25.96,-3.93 -46.8,-5.9 -62.53,-5.9 -28.32,0 -57.22,3.93 -86.72,11.8 -29.49,7.86 -56.43,19.66 -80.81,35.39 -24.38,15.73 -44.44,35.59 -60.17,59.58 -15.73,23.99 -23.6,52.11 -23.6,84.35 0,33.04 7.87,60.37 23.6,82 15.73,21.63 35.39,39.72 58.99,54.27 23.59,14.55 49.16,26.35 76.68,35.39 27.53,9.05 53.09,17.7 76.69,25.96 23.6,8.26 43.26,17.3 58.99,27.13 15.73,9.83 23.59,22.62 23.59,38.35 0,10.22 -2.55,18.87 -7.66,25.95 -5.12,7.08 -11.61,12.98 -19.47,17.7 -7.87,4.72 -16.52,8.06 -25.96,10.03 -9.43,1.96 -18.48,2.94 -27.13,2.94 -14.16,0 -30.08,-2.16 -47.78,-6.48 -17.7,-4.33 -35.39,-9.84 -53.09,-16.52 -17.7,-6.69 -35.2,-13.96 -52.5,-21.83 -17.31,-7.86 -32.25,-15.33 -44.83,-22.41l-53.09 130.95c34.6,23.6 74.72,42.87 120.33,57.81 45.62,14.95 90.06,22.42 133.32,22.42 29.1,0 58.99,-3.93 89.66,-11.8 30.68,-7.86 58.4,-20.06 83.18,-36.57 24.77,-16.52 45.03,-37.17 60.76,-61.94 15.73,-24.78 23.59,-54.07 23.59,-87.9zm824.38 -673.65c-18.09,0 -33.62,6.49 -46.6,19.47 -12.98,12.97 -19.46,28.51 -19.46,46.6 0,18.87 6.68,34.8 20.05,47.78 13.37,12.98 29.1,19.47 47.19,19.47 18.09,0 33.63,-6.49 46.6,-19.47 12.98,-12.98 19.47,-28.91 19.47,-47.78 0,-18.09 -6.68,-33.63 -20.05,-46.6 -13.38,-12.98 -29.11,-19.47 -47.2,-19.47zm95.57 861.24l0 -552.14c0,-11.79 -2.36,-23.2 -7.08,-34.21 -4.72,-11.01 -11.21,-20.65 -19.47,-28.91 -8.26,-8.25 -17.7,-14.94 -28.31,-20.05 -10.62,-5.11 -22.22,-7.67 -34.81,-7.67 -25.17,0 -46.8,8.65 -64.89,25.96 -18.09,17.3 -27.13,38.93 -27.13,64.88l0 552.14 181.69 0zm1317.52 -552.14c0,-24.38 -8.84,-45.42 -26.54,-63.12 -17.7,-17.69 -39.13,-26.54 -64.3,-26.54 -19.66,0 -37.55,5.51 -53.68,16.52 -16.12,11.01 -27.33,25.95 -33.62,44.83l-107.36 326.8 -143.94 -385.79 -155.73 69.61 211.18 513.2c8.66,20.45 20.06,36.38 34.22,47.78 14.16,11.41 33.03,17.11 56.63,17.11 21.23,0 38.93,-6.49 53.09,-19.47 14.15,-12.98 25.17,-28.51 33.03,-46.6 3.15,-2.36 9.24,-12.78 18.29,-31.26 9.04,-18.49 19.46,-41.3 31.26,-68.43 11.8,-27.14 24.38,-57.02 37.76,-89.66 13.37,-32.64 26.15,-64.11 38.34,-94.39 12.19,-30.28 22.81,-57.81 31.85,-82.58 9.05,-24.78 15.54,-43.46 19.47,-56.04 13.37,-31.46 20.05,-55.45 20.05,-71.97zm1298.66 234.78c0,-44.05 -7.87,-85.93 -23.6,-125.65 -15.73,-39.72 -37.55,-74.52 -65.48,-104.41 -27.92,-29.89 -60.95,-53.48 -99.1,-70.78 -38.14,-17.31 -80.03,-25.96 -125.64,-25.96 -45.62,0 -87.5,8.85 -125.65,26.55 -38.15,17.69 -71.18,41.48 -99.1,71.37 -27.92,29.89 -49.75,64.69 -65.48,104.41 -15.73,39.72 -23.59,82 -23.59,126.83 0,44.04 7.86,85.93 23.59,125.65 15.73,39.71 37.56,74.52 65.48,104.41 27.92,29.88 61.15,53.68 99.69,71.37 38.54,17.7 80.62,26.55 126.24,26.55 45.61,0 87.5,-8.85 125.64,-26.55 38.15,-17.69 70.99,-41.68 98.51,-71.96 27.53,-30.29 49.16,-65.29 64.89,-105 15.73,-39.72 23.6,-82 23.6,-126.83zm-180.51 1.18c0,20.45 -2.55,41.09 -7.67,61.94 -5.11,20.84 -12.97,39.52 -23.59,56.04 -10.62,16.51 -24.38,30.08 -41.29,40.7 -16.91,10.62 -37.17,15.93 -60.76,15.93 -22.81,0 -42.67,-5.31 -59.58,-15.93 -16.91,-10.62 -30.68,-24.38 -41.29,-41.29 -10.62,-16.91 -18.49,-35.79 -23.6,-56.63 -5.11,-20.85 -7.67,-41.1 -7.67,-60.76 0,-19.66 2.75,-39.52 8.26,-59.58 5.51,-20.06 13.57,-38.34 24.19,-54.86 10.61,-16.52 24.18,-29.89 40.7,-40.11 16.51,-10.23 36.18,-15.34 58.99,-15.34 22.81,0 42.67,5.11 59.58,15.34 16.91,10.22 30.87,23.4 41.88,39.52 11.01,16.12 19.07,34.41 24.18,54.86 5.12,20.45 7.67,40.51 7.67,60.17zm1377.71 128.59c0,-33.82 -7.86,-62.33 -23.59,-85.53 -15.73,-23.2 -35.59,-42.67 -59.58,-58.4 -23.99,-15.73 -49.95,-28.9 -77.87,-39.52 -27.92,-10.62 -53.88,-20.25 -77.86,-28.91 -23.99,-8.65 -43.85,-17.3 -59.58,-25.95 -15.73,-8.65 -23.6,-19.27 -23.6,-31.85 0,-8.66 1.97,-16.13 5.9,-22.42 3.93,-6.29 9.05,-11.4 15.34,-15.34 6.29,-4.72 13.56,-8.06 21.82,-10.03 8.26,-1.96 16.32,-2.95 24.19,-2.95 17.3,0 33.82,2.36 49.55,7.08 15.73,4.72 30.67,10.03 44.83,15.93 14.16,5.9 27.53,11.21 40.11,15.93 12.59,4.72 24.78,7.08 36.58,7.08 18.09,0 33.82,-6.49 47.19,-19.47 13.37,-12.98 20.05,-28.9 20.05,-47.78 0,-21.24 -9.04,-39.33 -27.13,-54.27 -18.09,-14.94 -39.52,-26.74 -64.3,-35.39 -24.77,-8.66 -50.14,-14.95 -76.09,-18.88 -25.96,-3.93 -46.8,-5.9 -62.53,-5.9 -28.32,0 -57.22,3.93 -86.72,11.8 -29.49,7.86 -56.43,19.66 -80.81,35.39 -24.38,15.73 -44.44,35.59 -60.17,59.58 -15.73,23.99 -23.6,52.11 -23.6,84.35 0,33.04 7.87,60.37 23.6,82 15.73,21.63 35.39,39.72 58.99,54.27 23.59,14.55 49.16,26.35 76.68,35.39 27.53,9.05 53.09,17.7 76.69,25.96 23.6,8.26 43.26,17.3 58.99,27.13 15.73,9.83 23.59,22.62 23.59,38.35 0,10.22 -2.55,18.87 -7.66,25.95 -5.12,7.08 -11.61,12.98 -19.47,17.7 -7.87,4.72 -16.52,8.06 -25.96,10.03 -9.43,1.96 -18.48,2.94 -27.13,2.94 -14.16,0 -30.08,-2.16 -47.78,-6.48 -17.7,-4.33 -35.39,-9.84 -53.09,-16.52 -17.7,-6.69 -35.2,-13.96 -52.5,-21.83 -17.31,-7.86 -32.25,-15.33 -44.83,-22.41l-53.09 130.95c34.6,23.6 74.72,42.87 120.33,57.81 45.62,14.95 90.06,22.42 133.32,22.42 29.1,0 58.99,-3.93 89.66,-11.8 30.68,-7.86 58.4,-20.06 83.18,-36.57 24.77,-16.52 45.03,-37.17 60.76,-61.94 15.73,-24.78 23.59,-54.07 23.59,-87.9z"/>
  </g>
 </g>
</svg>
